# xmcd CD database file
# Copyright (C) 1993-1998 Ti Kan
# 
# Track frame offsets:
#     182
#     35107
#     54895
#     84652
#     144552
#     186952
#     212657
#     246002
# 
# Disc length: 4103 seconds
# 
# Revision: 1
# Processed by: cddbd v1.4b41PL1 Copyright (c) Steve Scherf et al.
# Submitted via: DiscPlay 4.0.4
# 
DISCID=6e100508
DTITLE=Pappo with Deacon Jones - July 93 Los Angeles
DYEAR=1900
DGENRE=
TTITLE0=Fiesta cervezal
TTITLE1=El tropez n
TTITLE2=Peque a ala
TTITLE3=Siempre es lo mismo nena
TTITLE4=Sube a mi voiture
TTITLE5=Blues de Santa Fe
TTITLE6=Desconf o
TTITLE7=Tren de las 16
EXTD=
EXTT0=
EXTT1=
EXTT2=
EXTT3=
EXTT4=
EXTT5=
EXTT6=
EXTT7=
PLAYORDER=
